<svg xmlns="http://www.w3.org/2000/svg" viewBox="0 0 1246.49 1246.53"><defs><style>.cls-1,.cls-2{fill:none;stroke-linecap:round;stroke-miterlimit:10;}.cls-1{stroke:#65c8d0;stroke-width:116.05px;stroke-dasharray:2.18 320.82;}.cls-2{stroke:#ccd6f6;stroke-width:86.53px;stroke-dasharray:1.45 213.06;}.cls-3{fill:#65c8d0;}</style></defs><title>mainlogo</title><g id="Layer_1" data-name="Layer 1"><circle class="cls-1" cx="623.25" cy="623.26" r="565.23"/><ellipse class="cls-2" cx="621.77" cy="622.52" rx="375.36" ry="375.38"/></g><g id="Layer_2" data-name="Layer 2"><path class="cls-3" d="M475.14,329.31l18,312.24h-65.9L423.29,508q-.46-21.18-.46-29.06,0-20.73.92-37.51t3-44.5l.46-4.73L391.26,588.38H334.11L295.39,392.16q2.53,26.14,3.57,46.3t1,44.94q0,16.46-.23,25.68l-2.3,132.47H232.71l18-312.24h77.66l35.48,201.85,33.65-201.85Z" transform="translate(132.07 136.2)"/><path class="cls-3" d="M728.16,620.82Q692,641.55,633,641.55H527V329.31H628.15q54.84,0,88.61,18.58t33.76,61.17q0,26.58-16.6,43.7T692,476.19q30.64,5,51.51,22.3t20.85,51.59Q764.34,600.1,728.16,620.82ZM662.72,389.91q-11.76-8.34-36.88-8.34H602.57v72.32h25.58q24.42,0,35.37-8.79t11-28.61Q674.47,398.25,662.72,389.91Zm10,123.68Q659,503.45,633.68,503.45H602.57v84.26h27.88q25.81,0,40.91-8.57t15.09-32Q686.45,523.73,672.74,513.59Z" transform="translate(132.07 136.2)"/></g></svg>
